# xmcd
#
# Track frame offsets: 
#        150
#        13887
#        49212
#        62725
#        87150
#        111812
#        133462
#        158700
#        182192
#        197175
#        212325
#        224687
#        240867
#
# Disc length: 3335 seconds
#
# Revision: 0
# Processed by: cddbd v1.5.1PL2 Copyright (c) Steve Scherf et al.
# Submitted via: ExactAudioCopy v0.95b4
#
DISCID=be0d050d
DTITLE=Brownie McGhee and Sonny Terry - Blues Masters: Brownie McGhee an
DTITLE=d Sonny Terry
DYEAR=1900
DGENRE=Blues
TTITLE0=Rock Island Line
TTITLE1=John Henry
TTITLE2=The Chariot Is Coming
TTITLE3=Two Points Of View
TTITLE4=Midnight Special
TTITLE5=Tears Rollin' Down
TTITLE6=Backdoor Sunshine
TTITLE7=Find My Way Home
TTITLE8=Tryin' To Make It
TTITLE9=Fast Old Freight Train
TTITLE10=Old Lost John
TTITLE11=From My Childhood
TTITLE12=Chasing The Fox
EXTD=
EXTT0=
EXTT1=
EXTT2=
EXTT3=
EXTT4=
EXTT5=
EXTT6=
EXTT7=
EXTT8=
EXTT9=
EXTT10=
EXTT11=
EXTT12=
PLAYORDER=
